<svg width="180" height="246" viewBox="0 0 180 246" fill="none" xmlns="http://www.w3.org/2000/svg">
<rect x="1.5" y="1.5" width="177" height="243" rx="12.5" fill="url(#paint0_linear_0_1)" stroke="black" stroke-width="3"/>
<mask id="path-2-outside-1_0_1" maskUnits="userSpaceOnUse" x="32" y="25" width="115" height="150" fill="black">
<rect fill="white" x="32" y="25" width="115" height="150"/>
<path d="M35.4391 149L82.9391 27.6H109.039L69.5391 123.7L66.4391 129.2H144.639L144.539 149H35.4391ZM104.439 173L104.539 136.6L111.939 129.2C109.472 129.2 107.706 128.3 106.639 126.5C105.639 124.7 105.039 122.5 104.839 119.9C104.639 117.3 104.539 114.8 104.539 112.4L104.439 85.1L127.339 84.6V173H104.439Z"/>
</mask>
<path d="M35.4391 149L82.9391 27.6H109.039L69.5391 123.7L66.4391 129.2H144.639L144.539 149H35.4391ZM104.439 173L104.539 136.6L111.939 129.2C109.472 129.2 107.706 128.3 106.639 126.5C105.639 124.7 105.039 122.5 104.839 119.9C104.639 117.3 104.539 114.8 104.539 112.4L104.439 85.1L127.339 84.6V173H104.439Z" fill="white"/>
<path d="M35.4391 149L33.5766 148.271L32.5089 151H35.4391V149ZM82.9391 27.6V25.6H81.574L81.0766 26.8712L82.9391 27.6ZM109.039 27.6L110.889 28.3603L112.023 25.6H109.039V27.6ZM69.5391 123.7L71.2814 124.682L71.342 124.574L71.3889 124.46L69.5391 123.7ZM66.4391 129.2L64.6968 128.218L63.016 131.2H66.4391V129.2ZM144.639 129.2L146.639 129.21L146.649 127.2H144.639V129.2ZM144.539 149V151H146.529L146.539 149.01L144.539 149ZM104.439 173L102.439 172.995L102.434 175H104.439V173ZM104.539 136.6L103.125 135.186L102.541 135.769L102.539 136.594L104.539 136.6ZM111.939 129.2L113.353 130.614L116.767 127.2H111.939V129.2ZM106.639 126.5L104.891 127.471L104.904 127.496L104.918 127.52L106.639 126.5ZM104.839 119.9L102.845 120.053V120.053L104.839 119.9ZM104.539 112.4H106.539L106.539 112.393L104.539 112.4ZM104.439 85.1L104.395 83.1005L102.432 83.1433L102.439 85.1073L104.439 85.1ZM127.339 84.6H129.339V82.5558L127.295 82.6005L127.339 84.6ZM127.339 173V175H129.339V173H127.339ZM35.4391 149L37.3016 149.729L84.8016 28.3287L82.9391 27.6L81.0766 26.8712L33.5766 148.271L35.4391 149ZM82.9391 27.6V29.6H109.039V27.6V25.6H82.9391V27.6ZM109.039 27.6L107.189 26.8396L67.6892 122.94L69.5391 123.7L71.3889 124.46L110.889 28.3603L109.039 27.6ZM69.5391 123.7L67.7968 122.718L64.6968 128.218L66.4391 129.2L68.1814 130.182L71.2814 124.682L69.5391 123.7ZM66.4391 129.2V131.2H144.639V129.2V127.2H66.4391V129.2ZM144.639 129.2L142.639 129.19L142.539 148.99L144.539 149L146.539 149.01L146.639 129.21L144.639 129.2ZM144.539 149V147H35.4391V149V151H144.539V149ZM104.439 173L106.439 173.005L106.539 136.605L104.539 136.6L102.539 136.594L102.439 172.995L104.439 173ZM104.539 136.6L105.953 138.014L113.353 130.614L111.939 129.2L110.525 127.786L103.125 135.186L104.539 136.6ZM111.939 129.2V127.2C110.029 127.2 108.996 126.554 108.36 125.48L106.639 126.5L104.918 127.52C106.415 130.046 108.915 131.2 111.939 131.2V129.2ZM106.639 126.5L108.387 125.529C107.559 124.038 107.017 122.133 106.833 119.747L104.839 119.9L102.845 120.053C103.061 122.867 103.719 125.362 104.891 127.471L106.639 126.5ZM104.839 119.9L106.833 119.747C106.637 117.193 106.539 114.745 106.539 112.4H104.539H102.539C102.539 114.855 102.641 117.407 102.845 120.053L104.839 119.9ZM104.539 112.4L106.539 112.393L106.439 85.0927L104.439 85.1L102.439 85.1073L102.539 112.407L104.539 112.4ZM104.439 85.1L104.483 87.0995L127.383 86.5995L127.339 84.6L127.295 82.6005L104.395 83.1005L104.439 85.1ZM127.339 84.6H125.339V173H127.339H129.339V84.6H127.339ZM127.339 173V171H104.439V173V175H127.339V173Z" fill="#FF6200" mask="url(#path-2-outside-1_0_1)"/>
<path d="M37.6424 213.29C36.8111 213.29 36.0764 213.242 35.4384 213.145C34.8198 213.068 34.2398 212.903 33.6984 212.652C33.1571 212.381 32.5771 212.004 31.9584 211.521C31.5911 211.792 31.1754 212.043 30.7114 212.275C30.2474 212.488 29.6674 212.662 28.9714 212.797C28.2754 212.913 27.3764 212.971 26.2744 212.971H22.9394C21.9921 212.971 21.2188 212.826 20.6194 212.536C20.0394 212.246 19.5948 211.888 19.2854 211.463C18.9954 211.038 18.7924 210.593 18.6764 210.129C18.5798 209.665 18.5314 209.259 18.5314 208.911V206.475C18.5314 205.276 18.8118 204.329 19.3724 203.633C19.9524 202.918 20.7741 202.434 21.8374 202.183C21.6828 202.028 21.5088 201.748 21.3154 201.342C21.1414 200.936 21.0544 200.424 21.0544 199.805V199.399C21.0544 198.471 21.4024 197.659 22.0984 196.963C22.7944 196.267 23.9254 195.919 25.4914 195.919H29.9864C31.2624 195.919 32.2098 196.083 32.8284 196.412C33.4664 196.741 33.8821 197.156 34.0754 197.659C34.2881 198.142 34.3944 198.645 34.3944 199.167V200.356C34.3944 200.723 34.2881 201.023 34.0754 201.255C33.8628 201.487 33.5534 201.603 33.1474 201.603H29.1454V200.907C29.1454 200.578 29.0681 200.327 28.9134 200.153C28.7781 199.96 28.5171 199.863 28.1304 199.863H27.4344C26.9704 199.863 26.7384 200.056 26.7384 200.443C26.7384 201.1 27.1541 201.719 27.9854 202.299C28.6041 202.724 29.2034 203.159 29.7834 203.604C30.3828 204.049 31.0014 204.551 31.6394 205.112C32.0454 205.46 32.3838 205.779 32.6544 206.069C32.9444 206.34 33.1184 206.504 33.1764 206.562L33.4664 206.359V202.357L39.2954 202.763V205.141C39.2954 205.547 39.2374 205.905 39.1214 206.214C39.0248 206.523 38.8121 206.842 38.4834 207.171C38.2708 207.384 37.9324 207.625 37.4684 207.896C37.0044 208.167 36.5888 208.389 36.2214 208.563C36.7241 208.95 37.2654 209.278 37.8454 209.549C38.4448 209.8 38.9958 209.984 39.4984 210.1C40.0204 210.216 40.4168 210.284 40.6874 210.303L40.3394 212.971C40.0688 213.048 39.6724 213.116 39.1504 213.174C38.6478 213.251 38.1451 213.29 37.6424 213.29ZM25.2884 208.969H28.1304C28.5364 208.969 28.8071 208.95 28.9424 208.911C29.0778 208.853 29.1551 208.814 29.1744 208.795C28.7684 208.389 28.2658 207.944 27.6664 207.461C27.0671 206.978 26.4871 206.543 25.9264 206.156C25.7331 206.021 25.5398 205.914 25.3464 205.837C25.1724 205.76 25.0081 205.721 24.8534 205.721C24.3894 205.721 24.1574 206.04 24.1574 206.678V207.809C24.1574 208.254 24.2348 208.563 24.3894 208.737C24.5634 208.892 24.8631 208.969 25.2884 208.969ZM44.4513 213V198.268L44.1613 195.948H49.4973L57.6753 204.242L58.8063 205.518H59.1253V195.948H64.6933V213H59.8503L51.4403 204.619L50.3093 203.256H50.0193V213H44.4513ZM69.6281 213V198.268L69.3381 195.948H82.7941C85.1334 195.948 86.8831 196.412 88.0431 197.34C89.2224 198.268 89.8121 199.718 89.8121 201.69V207.229C89.8121 209.24 89.2321 210.709 88.0721 211.637C86.9121 212.546 85.1527 213 82.7941 213H69.6281ZM75.2831 208.998H81.9241C83.4127 208.998 84.1667 208.312 84.1861 206.939V201.922C84.1861 201.361 84.0217 200.888 83.6931 200.501C83.3644 200.095 82.7747 199.892 81.9241 199.892H75.2831V208.998Z" fill="white"/>
<path d="M99.4605 213C97.4111 213 95.9128 212.546 94.9655 211.637C94.0375 210.709 93.5735 209.24 93.5735 207.229V201.69C93.5735 199.718 94.0375 198.268 94.9655 197.34C95.8935 196.412 97.3918 195.948 99.4605 195.948H107.928C109.958 195.948 111.437 196.412 112.365 197.34C113.313 198.268 113.786 199.718 113.786 201.69V207.229C113.786 209.24 113.313 210.709 112.365 211.637C111.418 212.546 109.939 213 107.928 213H99.4605ZM101.461 209.056H105.956C107.464 209.056 108.218 208.37 108.218 206.997V201.922C108.218 200.569 107.464 199.892 105.956 199.892H101.461C100.688 199.892 100.108 200.047 99.7215 200.356C99.3348 200.665 99.1415 201.187 99.1415 201.922V206.997C99.1415 207.712 99.3348 208.234 99.7215 208.563C100.108 208.892 100.688 209.056 101.461 209.056ZM118.424 213V198.268L118.134 195.948H123.47L131.648 204.242L132.779 205.518H133.098V195.948H138.666V213H133.823L125.413 204.619L124.282 203.256H123.992V213H118.424ZM143.311 213V195.948H161.929V199.892H148.966V202.299H158.565V206.33H148.966V209.027H161.465L163.205 212.681C163.205 212.758 162.944 212.836 162.422 212.913C161.9 212.971 161.001 213 159.725 213H143.311Z" fill="#FF6200"/>
<path d="M107.039 77V65.996C107.039 65.618 107.119 65.317 107.28 65.093C107.448 64.869 107.714 64.7325 108.078 64.6835H103.185V61.733H114.231V64.6835H110.388V77H107.039ZM123.369 77V61.733H126.676V77H123.369ZM115.924 77V61.733H119.232V77H115.924ZM118.266 70.616V67.6655H123.915V70.616H118.266Z" fill="white"/>
<defs>
<linearGradient id="paint0_linear_0_1" x1="-41.8854" y1="86.6923" x2="187.742" y2="255.675" gradientUnits="userSpaceOnUse">
<stop offset="0.447115"/>
<stop offset="0.447215" stop-color="#0C0C0C"/>
</linearGradient>
</defs>
</svg>
